<?xml version="1.0" encoding="UTF-8"?>
<svg id="Layer_2" data-name="Layer 2" xmlns="http://www.w3.org/2000/svg" viewBox="0 0 240.9 255.47">
  <defs>
    <style>
      .cls-1 {
        fill: #eb4511;
      }
    </style>
  </defs>
  <g id="Layer_1-2" data-name="Layer 1">
    <path class="cls-1" d="M240.9,0c0,17.43-.4,33.68-1.25,48.85-4.59,81.85-21.84,132.06-55.27,163.78-36.09,34.23-87.15,41.48-142.39,42.83h-21.72l-3.86-48.85-.68-8.53c21.67-.03,40.75-.58,57.48-2.18,28.51-2.71,50.08-8.55,65.58-20.16,2.08-1.56,4.04-3.21,5.89-4.97,14.04-13.32,32.02-40.43,37.14-121.93H61.54l1.65,20.97.38,4.59h50.11l4.54,57.48H10.48l-4.56-57.48-2.03-25.55L0,0h240.9Z"/>
  </g>
</svg>