<?xml version="1.0" encoding="UTF-8"?>
<svg id="Layer_2" data-name="Layer 2" xmlns="http://www.w3.org/2000/svg" viewBox="0 0 40 40">
  <defs>
    <style>
      .cls-1 {
        fill: #1e1d1d;
      }
    </style>
  </defs>
  <g id="Layer_1-2" data-name="Layer 1">
    <g>
      <path class="cls-1" d="M39.09,0H.91C.2,0,0,.2,0,.91v38.18c0,.71.2.91.91.91h38.18c.71,0,.91-.2.91-.91V.91c0-.71-.2-.91-.91-.91h0ZM36.37,35.91c0,.35-.1.46-.46.46H4.09c-.35,0-.46-.1-.46-.46V4.09c0-.35.1-.46.46-.46h31.82c.35,0,.46.1.46.46v31.82h0Z"/>
      <path class="cls-1" d="M18.18,8.18v23.64c0,.71-.2.91-.91.91h-9.09c-.71,0-.91-.2-.91-.91v-5.46c0-.71.2-.91.91-.91h1.82c.71,0,.91.2.91.91v.91h0v1.4c0,.33.11.42.45.42h2.76c.33,0,.42-.11.42-.45V11.33c0-.33-.11-.42-.45-.42h-2.73c-.35,0-.46.1-.46.46v2.27c0,.71-.2.91-.91.91h-1.82c-.71,0-.91-.2-.91-.91v-5.46c0-.71.2-.91.91-.91h9.09c.71,0,.91.2.91.91h0Z"/>
      <path class="cls-1" d="M31.82,7.27h-1.82c-.71,0-.91.2-.91.91v2.27c0,.34-.09.45-.42.45h-2.76c-.34,0-.45-.09-.45-.42v-1.4h0v-.91c0-.71-.2-.91-.91-.91h-1.82c-.71,0-.91.2-.91.91v23.64c0,.71.2.91.91.91h9.09c.71,0,.91-.2.91-.91V8.18c0-.71-.2-.91-.91-.91ZM29.09,28.64c0,.34-.09.45-.42.45h-2.76c-.34,0-.45-.09-.45-.42v-13.67c0-.35.1-.46.46-.46h2.73c.35,0,.46.1.46.46v13.64h0Z"/>
      <rect class="cls-1" x="7.27" y="18.18" width="3.64" height="3.64" rx=".83" ry=".83"/>
    </g>
  </g>
</svg>