<?xml version="1.0" encoding="UTF-8"?>
<svg id="Layer_2" data-name="Layer 2" xmlns="http://www.w3.org/2000/svg" viewBox="0 0 29.41 31.19">
  <defs>
    <style>
      .cls-1 {
        fill: #1e1d1d;
      }
    </style>
  </defs>
  <g id="Layer_1-2" data-name="Layer 1">
    <path class="cls-1" d="M29.41,0c0,2.13-.05,4.11-.15,5.96-.56,9.99-2.67,16.12-6.75,19.99-4.41,4.18-10.64,5.06-17.38,5.23h-2.65l-.47-5.96-.08-1.04c2.64,0,4.97-.07,7.02-.27,3.48-.33,6.11-1.04,8.01-2.46.25-.19.49-.39.72-.61,1.71-1.63,3.91-4.93,4.53-14.88H7.51l.2,2.56.05.56h6.12l.55,7.02H1.28l-.56-7.02-.25-3.12L0,0h29.41Z"/>
  </g>
</svg>