<?xml version="1.0" encoding="UTF-8"?>
<svg id="Layer_2" data-name="Layer 2" xmlns="http://www.w3.org/2000/svg" viewBox="0 0 751.39 281.02">
  <defs>
    <style>
      .cls-1 {
        fill: #eb4511;
      }
    </style>
  </defs>
  <g id="Layer_1-2" data-name="Layer 1">
    <g>
      <rect class="cls-1" x="-61.79" y="161.75" width="181.06" height="57.48" transform="translate(219.23 161.75) rotate(90)"/>
      <path class="cls-1" d="M506.81,25.55l3.89,48.85,12.51,157.76,3.86,48.85h46.82c3.59-.2,7.2-.43,10.81-.75,35.91-3.06,72.78-12.24,102.32-35.44,41.03-32.22,61.06-84.41,64.2-170.43.08-1.71.13-3.44.18-5.19V25.55h-244.58ZM640.32,205.89c-13.92,10.93-33.15,17.48-59.96,20.11l-12.01-151.6h115.76c-2.71,68.11-16.9,110.37-43.79,131.48Z"/>
      <polygon class="cls-1" points="481.25 25.55 462.14 74.41 400.4 232.17 381.29 281.02 319.58 281.02 338.68 232.17 400.43 74.41 270.3 74.41 270.3 0 327.78 0 327.78 25.55 481.25 25.55"/>
      <polygon class="cls-1" points="244.74 25.55 225.61 74.41 163.86 232.17 144.76 281.02 83.04 281.02 102.15 232.17 163.86 74.41 0 74.41 0 25.55 244.74 25.55"/>
    </g>
  </g>
</svg>